<?xml version="1.0" standalone="no"?>
<!DOCTYPE svg PUBLIC "-//W3C//DTD SVG 1.1//EN" "http://www.w3.org/Graphics/SVG/1.1/DTD/svg11.dtd" >
<svg xmlns="http://www.w3.org/2000/svg">
<metadata>Generated by IcoMoon</metadata>
<defs>
<font id="icomoon" horiz-adv-x="1024">
<font-face units-per-em="1024" ascent="960" descent="-64" />
<missing-glyph horiz-adv-x="1024" />
<glyph unicode="&#x20;" horiz-adv-x="512" d="" />
<glyph unicode="&#xe900;" glyph-name="Administrator" d="M511.979 277.739c-0.006 0-0.013 0-0.019 0-94.056 0-170.304 76.248-170.304 170.304s76.248 170.304 170.304 170.304c30.57 0 59.259-8.055 84.061-22.158l-0.841 0.44c3.7-2.006 6.17-5.861 6.17-10.292 0-6.445-5.225-11.669-11.669-11.669-2.18 0-4.221 0.598-5.967 1.639l0.053-0.030c-20.671 11.778-45.42 18.721-71.79 18.721-81.19 0-147.008-65.818-147.008-147.008s65.818-147.008 147.008-147.008c81.19 0 147.008 65.818 147.008 147.008 0 23.937-5.721 46.538-15.871 66.51l0.386-0.836c-0.884 1.604-1.405 3.517-1.405 5.551 0 6.445 5.225 11.669 11.669 11.669 4.674 0 8.706-2.748 10.569-6.717l0.030-0.071c11.317-22.172 17.949-48.359 17.949-76.096 0-94.045-76.238-170.283-170.283-170.283-0.033 0-0.065 0-0.098 0h0.005zM495.531 362.048c-0.003 0-0.006 0-0.009 0-3.22 0-6.136 1.304-8.247 3.413v0l-73.771 73.792c-2.108 2.111-3.412 5.026-3.412 8.245s1.304 6.134 3.412 8.245v0l41.835 41.856c2.112 2.114 5.031 3.422 8.256 3.422s6.144-1.308 8.256-3.422v0l23.68-23.68 56.619 56.619c2.111 2.108 5.026 3.412 8.245 3.412s6.134-1.304 8.245-3.412v0l41.856-41.856c2.108-2.111 3.412-5.026 3.412-8.245s-1.304-6.134-3.412-8.245v0l-106.667-106.667c-2.116-2.143-5.052-3.471-8.298-3.477h-0.001zM438.251 447.488l57.28-57.28 90.219 90.197-25.344 25.344-56.619-56.619c-2.112-2.114-5.031-3.422-8.256-3.422s-6.144 1.308-8.256 3.422v0l-23.68 23.68zM551.659 149.333h-79.317c-12.86 0.072-23.266 10.478-23.339 23.332v34.844c-23.721 6.294-44.504 15.163-63.617 26.544l1.132-0.624-24.661-24.661c-4.237-4.192-10.067-6.782-16.501-6.782s-12.264 2.59-16.503 6.784l-56.105 56.105c-4.192 4.237-6.782 10.067-6.782 16.501s2.59 12.264 6.784 16.503l24.638 24.659c-10.757 17.981-19.626 38.764-25.527 60.762l-0.393 1.723h-34.795c-12.853 0.072-23.254 10.466-23.339 23.309v79.347c0.072 12.86 10.478 23.266 23.332 23.339h34.759c6.27 23.759 15.126 44.58 26.503 63.728l-0.625-1.136-24.533 24.533c-4.192 4.237-6.782 10.067-6.782 16.501s2.59 12.264 6.784 16.503l56.105 56.105c4.237 4.192 10.067 6.782 16.501 6.782s12.264-2.59 16.503-6.784l24.446-24.467c18.037 10.809 38.884 19.715 60.954 25.633l1.723 0.393v34.517c0.072 12.86 10.478 23.266 23.332 23.339h79.346c12.86-0.072 23.266-10.478 23.339-23.332v-34.46c23.854-6.282 44.761-15.176 63.983-26.609l-1.135 0.625 24.363 24.363c4.237 4.192 10.067 6.782 16.501 6.782s12.264-2.59 16.503-6.784l56.105-56.105c4.192-4.237 6.782-10.067 6.782-16.501s-2.59-12.264-6.784-16.503l0.002 0.002-24.448-24.277c10.802-18.068 19.695-38.953 25.593-61.061l0.391-1.723h34.453c12.883-0.072 23.303-10.515 23.339-23.399v-79.342c-0.072-12.86-10.478-23.266-23.332-23.339h-34.546c-6.314-23.794-15.219-44.641-26.651-63.807l0.624 1.13 24.469-24.469c4.192-4.237 6.782-10.067 6.782-16.501s-2.59-12.264-6.784-16.503l-56.083-56.105c-4.237-4.192-10.067-6.782-16.501-6.782s-12.264 2.59-16.503 6.784l-24.531 24.553c-18.012-10.75-38.834-19.606-60.87-25.486l-1.722-0.391v-34.752c-0.072-12.868-10.49-23.278-23.354-23.339h-0.006zM384.768 259.84c2.329-0.001 4.498-0.685 6.318-1.862l-0.046 0.028c20.697-13.41 44.826-23.733 70.654-29.582l1.495-0.285c5.273-1.195 9.151-5.84 9.152-11.392v0-44.011h79.339v43.947c0.001 5.552 3.879 10.197 9.074 11.377l0.078 0.015c27.361 6.124 51.528 16.449 73.135 30.398l-0.879-0.532c1.774 1.146 3.942 1.826 6.268 1.826 3.227 0 6.147-1.31 8.26-3.426v0l31.040-31.040 56.085 56.085-30.976 30.976c-2.109 2.111-3.413 5.027-3.413 8.247 0 2.332 0.684 4.504 1.862 6.327l-0.028-0.046c13.484 20.742 23.865 44.928 29.751 70.822l0.286 1.498c1.195 5.273 5.84 9.151 11.392 9.152h43.712v79.317h-43.648c-5.552 0.001-10.197 3.879-11.377 9.074l-0.015 0.078c-6.129 27.468-16.5 51.73-30.525 73.408l0.53-0.875c-1.151 1.777-1.835 3.949-1.835 6.281 0 3.22 1.304 6.136 3.413 8.247v0l30.848 30.848-56.085 56-30.848-30.848c-2.111-2.109-5.027-3.413-8.247-3.413-2.332 0-4.504 0.684-6.327 1.862l0.046-0.028c-20.804 13.492-45.066 23.863-71.040 29.712l-1.493 0.283c-5.273 1.195-9.151 5.84-9.152 11.392v0 43.627h-79.253v-43.712c-0.001-5.552-3.879-10.197-9.074-11.377l-0.078-0.015c-27.393-6.172-51.578-16.553-73.191-30.566l0.871 0.529c-1.777-1.151-3.949-1.835-6.281-1.835-3.22 0-6.136 1.304-8.247 3.413v0l-30.955 30.976-56.107-56.085 31.040-31.040c2.112-2.112 3.418-5.029 3.418-8.252 0-2.321-0.678-4.484-1.846-6.301l0.028 0.046c-13.418-20.728-23.743-44.895-29.583-70.761l-0.284-1.495c-1.195-5.273-5.84-9.151-11.392-9.152h-43.968v-79.339h44.011c5.552-0.001 10.197-3.879 11.377-9.074l0.015-0.078c6.135-27.323 16.458-51.453 30.398-73.027l-0.531 0.877c1.151-1.777 1.835-3.949 1.835-6.281 0-3.22-1.304-6.136-3.413-8.247v0l-31.147-31.147 56.085-56.107 31.147 31.147c2.111 2.109 5.027 3.413 8.247 3.413 0.003 0 0.006 0 0.010 0h-0.001z" />
<glyph unicode="&#xe901;" glyph-name="dashboard" d="M792 616.021h-560c-0.278-0.007-0.604-0.011-0.932-0.011-21.206 0-38.467 16.889-39.067 37.951l-0.001 0.055v75.989c0.6 21.116 17.862 38.006 39.068 38.006 0.328 0 0.655-0.004 0.98-0.012l-0.048 0.001h560c0.278 0.007 0.604 0.011 0.932 0.011 21.206 0 38.467-16.889 39.067-37.951l0.001-0.055v-75.989c-0.6-21.116-17.862-38.006-39.068-38.006-0.328 0-0.655 0.004-0.98 0.012l0.048-0.001zM232 742.677c-0.097 0.003-0.21 0.004-0.324 0.004-7.068 0-12.821-5.636-13.009-12.659v-76.006c0.188-7.040 5.94-12.676 13.009-12.676 0.114 0 0.228 0.001 0.341 0.004h559.983c0.097-0.003 0.21-0.004 0.324-0.004 7.068 0 12.821 5.636 13.009 12.659v76.006c-0.188 7.040-5.94 12.676-13.009 12.676-0.114 0-0.228-0.001-0.341-0.004h0.017zM794.005 372.949h-202.667c-20.965 0.036-37.949 17.028-37.973 37.992v101.314c0.024 20.974 17.021 37.97 37.992 37.995h202.669c20.956-0.049 37.928-17.036 37.952-37.992v-101.314c-0.024-20.967-17.008-37.958-37.97-37.995h-0.004zM591.339 524.928c-6.999 0-12.672-5.673-12.672-12.672v0-101.312c0-6.999 5.673-12.672 12.672-12.672v0h202.667c6.999 0 12.672 5.673 12.672 12.672v0 101.312c0 6.999-5.673 12.672-12.672 12.672v0zM432.64 127.936h-202.667c-20.98 0.036-37.973 17.052-37.973 38.037 0 0.008 0 0.015 0 0.023v-0.001 329.28c0.024 20.974 17.021 37.97 37.992 37.995h202.669c20.956-0.049 37.928-17.036 37.952-37.992v-329.282c0-0.006 0-0.014 0-0.021 0-20.985-16.993-38.001-37.97-38.037h-0.003zM229.973 507.883c-6.999 0-12.672-5.673-12.672-12.672v0-329.216c0-6.999 5.673-12.672 12.672-12.672v0h202.667c6.999 0 12.672 5.673 12.672 12.672v0 329.28c0 6.999-5.673 12.672-12.672 12.672v0zM794.005 128h-202.667c-20.965 0.036-37.949 17.028-37.973 37.992v101.314c0.024 20.974 17.021 37.97 37.992 37.995h202.669c20.974-0.024 37.97-17.021 37.995-37.992v-101.314c-0.024-20.982-17.033-37.983-38.015-37.995h-0.001zM591.339 279.979c-6.999 0-12.672-5.673-12.672-12.672v0-101.312c0-6.999 5.673-12.672 12.672-12.672v0h202.667c6.999 0 12.672 5.673 12.672 12.672v0 101.312c0 6.999-5.673 12.672-12.672 12.672v0z" />
<glyph unicode="&#xe902;" glyph-name="fulfil" d="M276.928 207.168c-9.088 13.568-18.069 24.533-18.453 25.003-3.299 3.999-8.256 6.528-13.803 6.528s-10.503-2.529-13.778-6.498l-0.024-0.030c-0.384-0.469-9.365-11.435-18.453-25.003-11.053-13.029-18.444-29.482-20.403-47.564l-0.035-0.393c0-29.096 23.587-52.683 52.683-52.683s52.683 23.587 52.683 52.683v0c-1.987 18.474-9.371 34.927-20.523 48.086l0.107-0.129zM244.672 142.251c0 0 0 0-0.001 0-9.373 0-16.981 7.556-17.066 16.909v0.008c3.009 10.904 8.058 20.378 14.755 28.432l-0.099-0.123 2.432 3.541 2.432-3.541c6.537-7.953 11.548-17.43 14.423-27.795l0.127-0.536c-0.096-9.33-7.664-16.86-16.999-16.896h-0.003zM801.941 462.763l-209.067 207.211 54.869 54.528c4.633 4.6 7.501 10.973 7.501 18.016s-2.868 13.416-7.499 18.015l-0.001 0.001c-4.636 4.651-11.048 7.53-18.133 7.53s-13.498-2.878-18.133-7.529l-0.001-0.001-308.907-307.093c-43.453-12.298-74.784-51.535-74.944-98.115v-0.018c0-14.138 11.462-25.6 25.6-25.6s25.6 11.462 25.6 25.6v0c0.039 19.724 11.272 36.816 27.682 45.264l0.286 0.134 216.661-214.827c18.589-18.402 44.169-29.771 72.405-29.771s53.817 11.369 72.414 29.779l-0.009-0.008 133.739 132.693c18.545 18.404 30.024 43.904 30.024 72.085s-11.48 53.681-30.018 72.079l-0.006 0.006zM765.803 354.645l-133.824-132.8c-9.302-9.236-22.118-14.945-36.267-14.945s-26.965 5.708-36.27 14.947l0.003-0.003-185.6 184.384h284.011c14.068 0 25.472 11.404 25.472 25.472s-11.404 25.472-25.472 25.472v0h-279.061l177.899 176.789 209.088-207.317c9.265-9.198 15-21.94 15-36.021s-5.735-26.824-14.997-36.018l-0.003-0.003z" />
<glyph unicode="&#xe903;" glyph-name="Manage" d="M662.699 768h-282.304c-22.706-0.024-41.106-18.425-41.131-41.128v-208.343c0.024-22.706 18.425-41.106 41.128-41.131h282.306c22.706 0.024 41.106 18.425 41.131 41.128v208.343c-0.024 22.706-18.425 41.106-41.128 41.131h-0.002zM676.416 518.528c0-7.576-6.141-13.717-13.717-13.717v0h-282.304c-7.576 0-13.717 6.141-13.717 13.717v0 208.341c0 7.576 6.141 13.717 13.717 13.717v0h282.304c7.576 0 13.717-6.141 13.717-13.717v0zM524.949 581.589h-118.827c-5.525 0-10.027-6.144-10.027-13.717s4.48-13.717 10.027-13.717h118.805c5.525 0 10.027 6.144 10.027 13.717s-4.459 13.717-10.005 13.717zM583.488 577.579c-2.479 2.479-5.903 4.012-9.685 4.012-7.564 0-13.696-6.132-13.696-13.696s6.132-13.696 13.696-13.696c7.564 0 13.695 6.131 13.696 13.694v0c-0.012 3.78-1.542 7.201-4.011 9.686l0.001-0.001zM575.445 656.704h-168.875c-6.111-1.671-10.528-7.173-10.528-13.707s4.417-12.036 10.428-13.683l0.1-0.023h168.875c6.111 1.671 10.528 7.173 10.528 13.707s-4.417 12.036-10.428 13.683l-0.1 0.023zM332.416 323.989h-120.619c-22.706-0.024-41.106-18.425-41.131-41.128v-120.621c0.036-22.697 18.432-41.085 41.128-41.109h120.621c22.699 0.024 41.094 18.412 41.131 41.106v120.622c-0.024 22.706-18.425 41.106-41.128 41.131h-0.002zM346.133 162.24c0-7.576-6.141-13.717-13.717-13.717v0h-120.619c-7.576 0-13.717 6.141-13.717 13.717v0 120.619c0 7.576 6.141 13.717 13.717 13.717v0h120.619c7.576 0 13.717-6.141 13.717-13.717v0-120.619zM582.059 323.989h-120.619c-22.697-0.036-41.085-18.432-41.109-41.128v-120.621c0.036-22.689 18.42-41.073 41.106-41.109h120.622c22.699 0.024 41.094 18.412 41.131 41.106v120.622c-0.024 22.706-18.425 41.106-41.128 41.131h-0.002zM595.755 162.24c0 0 0 0 0 0 0-7.568-6.129-13.705-13.695-13.717h-120.62c-7.567 0.012-13.696 6.149-13.696 13.717 0 0 0 0 0 0v0 120.619c0 0 0 0 0 0 0 7.568 6.129 13.705 13.695 13.717h120.62c7.567-0.012 13.696-6.149 13.696-13.717 0 0 0 0 0 0v0zM831.701 323.989h-120.661c-22.697-0.036-41.085-18.432-41.109-41.128v-120.621c0.036-22.689 18.42-41.073 41.106-41.109h120.622c22.689 0.036 41.073 18.42 41.109 41.106v120.622c-0.024 22.684-18.388 41.070-41.061 41.131h-0.006zM845.397 162.24c0 0 0 0 0 0 0-7.568-6.129-13.705-13.695-13.717h-120.662c-7.576 0-13.717 6.141-13.717 13.717v0 120.619c0 7.576 6.141 13.717 13.717 13.717v0h120.619c7.567-0.012 13.696-6.149 13.696-13.717 0 0 0 0 0 0v0zM757.675 430.635h-222.229v16.619c-0.299 7.34-6.321 13.176-13.707 13.176s-13.408-5.837-13.706-13.15l-0.001-0.027v-16.619h-60.48c-0.161 0.007-0.351 0.011-0.541 0.011-7.576 0-13.717-6.141-13.717-13.717s6.141-13.717 13.717-13.717c0.19 0 0.38 0.004 0.568 0.012l-0.027-0.001h60.48v-37.461c0.299-7.34 6.321-13.176 13.707-13.176s13.408 5.837 13.706 13.15l0.001 0.027v37.376h222.229v-42.773c-0.007-0.161-0.011-0.351-0.011-0.541 0-7.576 6.141-13.717 13.717-13.717s13.717 6.141 13.717 13.717c0 0.19-0.004 0.38-0.012 0.568l0.001-0.027v42.773c0 0.013 0 0.028 0 0.043 0 15.149-12.268 27.432-27.411 27.456h-0.002zM346.112 430.635h-60.309c-15.135-0.012-27.401-12.278-27.413-27.412v-42.774c-0.007-0.161-0.011-0.351-0.011-0.541 0-7.576 6.141-13.717 13.717-13.717s13.717 6.141 13.717 13.717c0 0.19-0.004 0.38-0.012 0.568l0.001-0.027v42.773h60.309c7.34 0.299 13.176 6.321 13.176 13.707s-5.837 13.408-13.15 13.706l-0.027 0.001zM405.803 426.624c-2.479 2.479-5.903 4.012-9.685 4.012-7.564 0-13.696-6.132-13.696-13.696s6.132-13.696 13.696-13.696c7.564 0 13.695 6.131 13.696 13.694v0c-0.014 3.78-1.544 7.199-4.012 9.686l0.001-0.001z" />
<glyph unicode="&#xe904;" glyph-name="tracking" d="M195.989 85.419c25.767 0 46.656 20.889 46.656 46.656s-20.889 46.656-46.656 46.656c-25.767 0-46.656-20.889-46.656-46.656 0-0.023 0-0.045 0-0.067v0.003c0.073-25.725 20.926-46.556 46.652-46.592h0.004zM195.989 162.432c16.754 0 30.336-13.582 30.336-30.336s-13.582-30.336-30.336-30.336c-16.754 0-30.336 13.582-30.336 30.336v0c0.073 16.708 13.622 30.227 30.334 30.251h0.002zM828.011 178.667c-25.767 0-46.656-20.889-46.656-46.656s20.889-46.656 46.656-46.656c25.767 0 46.656 20.889 46.656 46.656v0c-0.036 25.753-20.903 46.62-46.652 46.656h-0.004zM828.011 101.653c-16.754 0-30.336 13.582-30.336 30.336s13.582 30.336 30.336 30.336c16.754 0 30.336-13.582 30.336-30.336v0c-0.024-16.744-13.592-30.312-30.334-30.336h-0.002zM313.536 155.904c-13.208 0-23.915-10.707-23.915-23.915s10.707-23.915 23.915-23.915h3.072c13.208 0 23.915 10.707 23.915 23.915s-10.707 23.915-23.915 23.915v0zM324.203 131.989c0-4.194-3.4-7.595-7.595-7.595v0h-3.072c-0.12-0.007-0.261-0.011-0.402-0.011-4.194 0-7.595 3.4-7.595 7.595s3.4 7.595 7.595 7.595c0.142 0 0.282-0.004 0.422-0.012l-0.019 0.001h3.072c0 0 0 0 0 0 4.187 0 7.583-3.388 7.595-7.572v-0.001zM402.731 155.904h-4.267c-13.208 0-23.915-10.707-23.915-23.915s10.707-23.915 23.915-23.915h4.267c13.208 0 23.915 10.707 23.915 23.915s-10.707 23.915-23.915 23.915v0zM402.731 124.416h-4.267c-0.12-0.007-0.261-0.011-0.402-0.011-4.194 0-7.595 3.4-7.595 7.595s3.4 7.595 7.595 7.595c0.142 0 0.282-0.004 0.422-0.012l-0.019 0.001h4.267c0.12 0.007 0.261 0.011 0.402 0.011 4.194 0 7.595-3.4 7.595-7.595s-3.4-7.595-7.595-7.595c-0.142 0-0.282 0.004-0.422 0.012l0.019-0.001zM707.392 108.075h3.093c13.208 0 23.915 10.707 23.915 23.915s-10.707 23.915-23.915 23.915h-3.093c-13.208 0-23.915-10.707-23.915-23.915s10.707-23.915 23.915-23.915v0zM707.392 139.563h3.093c0.12 0.007 0.261 0.011 0.402 0.011 4.194 0 7.595-3.4 7.595-7.595s-3.4-7.595-7.595-7.595c-0.142 0-0.282 0.004-0.422 0.012l0.019-0.001h-3.093c-0.12-0.007-0.261-0.011-0.402-0.011-4.194 0-7.595 3.4-7.595 7.595s3.4 7.595 7.595 7.595c0.142 0 0.282-0.004 0.422-0.012l-0.019 0.001zM625.429 155.904h-4.267c-13.208 0-23.915-10.707-23.915-23.915s10.707-23.915 23.915-23.915h4.267c13.208 0 23.915 10.707 23.915 23.915s-10.707 23.915-23.915 23.915v0zM625.429 124.416h-4.267c-0.12-0.007-0.261-0.011-0.402-0.011-4.194 0-7.595 3.4-7.595 7.595s3.4 7.595 7.595 7.595c0.142 0 0.282-0.004 0.422-0.012l-0.019 0.001h4.267c0.12 0.007 0.261 0.011 0.402 0.011 4.194 0 7.595-3.4 7.595-7.595s-3.4-7.595-7.595-7.595c-0.142 0-0.282 0.004-0.422 0.012l0.019-0.001zM512 810.667c-141.696 0-256.789-100.843-256.789-224.811 0-101.056 88.192-235.904 162.133-331.243 2.445-2.865 6.060-4.669 10.095-4.669 2.493 0 4.826 0.689 6.818 1.887l-0.060-0.033c3.17 1.676 5.294 4.952 5.294 8.724 0 2.286-0.78 4.39-2.089 6.061l0.016-0.021c-72.064 92.864-157.867 223.637-157.867 319.296 0 112.235 104.299 203.563 232.533 203.563s232.533-91.328 232.533-203.563c0-142.379-193.451-365.269-232.235-408.512-0.080-0.058-0.18-0.093-0.288-0.093s-0.208 0.035-0.289 0.094l0.001-0.001c-13.568 15.125-27.861 31.808-41.067 47.765-2.443 2.706-5.963 4.399-9.878 4.399-2.617 0-5.058-0.756-7.115-2.063l0.054 0.032c-3.038-1.702-5.058-4.901-5.058-8.571 0-2.435 0.889-4.662 2.359-6.375l-0.011 0.013c5.909-7.147 11.499-13.781 16.64-19.819-14.95-10.422-24.699-27.408-25.045-46.688l-0.001-0.053c4.744-34.467 34.004-60.729 69.397-60.729s64.654 26.262 69.356 60.363l0.041 0.366c-0.342 19.335-10.093 36.321-24.856 46.617l-0.189 0.125c36.98 42.984 73.285 90.274 106.919 139.534l3.566 5.533c67.648 101.269 101.952 184.704 101.952 248.021-0.085 124.011-115.285 224.853-256.875 224.853zM557.12 146.091c-3.095-22.4-22.115-39.464-45.12-39.464s-42.025 17.064-45.093 39.226l-0.027 0.238c0.203 12.204 6.195 22.966 15.341 29.687l0.104 0.073c3.925-4.48 7.403-8.384 10.304-11.627 4.898-5.085 11.765-8.244 19.371-8.244s14.473 3.158 19.363 8.235l0.008 0.008c2.88 3.221 6.4 7.125 10.304 11.627 9.251-6.794 15.242-17.556 15.445-29.728v-0.032zM561.643 594.176c0-28.077-22.761-50.837-50.837-50.837s-50.837 22.761-50.837 50.837c0 28.077 22.761 50.837 50.837 50.837s50.837-22.761 50.837-50.837z" />
<glyph unicode="&#xe905;" glyph-name="full-screen" d="M421.333 614.677v25.323h-88.661c-6.999 0-12.672-5.673-12.672-12.672v0-88.661h25.323v58.133l117.611-117.675 17.941 17.941-117.675 117.611zM712.661 640h-88.661v-25.323h58.133l-117.675-117.611 17.856-17.856 117.675 117.675v-58.219h25.344v88.661c0 6.999-5.673 12.672-12.672 12.672v0zM699.989 277.867l-117.675 117.675-17.856-17.856 117.675-117.675h-58.133v-25.344h88.661c6.999 0 12.672 5.673 12.672 12.672v0 88.661h-25.323zM462.933 395.669l-117.675-117.803v58.133h-25.259v-88.661c0-6.999 5.673-12.672 12.672-12.672h88.661v25.323h-58.133l117.675 117.675z" />
<glyph unicode="&#xe906;" glyph-name="search" d="M600.32 336.661c-28.521-20.5-64.147-32.785-102.641-32.785-49.105 0-93.541 19.989-125.616 52.274l-0.009 0.009c-32.14 32.444-51.999 77.103-51.999 126.4s19.859 93.957 52.013 126.414l-0.014-0.014c32.047 32.346 76.479 52.372 125.589 52.372s93.542-20.027 125.576-52.359l0.013-0.014c32.176-32.437 52.060-77.11 52.060-126.426 0-42.751-14.942-82.012-39.888-112.845l0.265 0.338 82.923-83.435-34.261-34.475zM368.448 482.581c0.46-70.991 58.115-128.363 129.171-128.363 71.34 0 129.173 57.833 129.173 129.173 0 71.332-57.819 129.16-129.148 129.173h-0.001c-71.417-0.303-129.195-58.268-129.195-129.727 0-0.090 0-0.181 0-0.271v0.014z" />
<glyph unicode="&#xe907;" d="M728.939 668.373c0-5.891-4.776-10.667-10.667-10.667s-10.667 4.776-10.667 10.667c0 5.891 4.776 10.667 10.667 10.667s10.667-4.776 10.667-10.667z" />
<glyph unicode="&#xe908;" d="M850.837 499.541l-31.787 7.915v8.811l31.531 19.712c44.684 28.302 73.917 77.479 73.917 133.483 0 86.944-70.457 157.433-157.39 157.483h-21.146c-14.533 16.117-35.485 26.203-58.794 26.203-43.664 0-79.061-35.397-79.061-79.061 0-28.604 15.19-53.66 37.944-67.542l0.348-0.197c-15.896-25.784-25.317-57.028-25.323-90.473v-9.517l39.573-13.184v-24.597c0-0.060 0-0.131 0-0.202 0-30.115 23.11-54.831 52.563-57.383l0.216-0.015v-32.277c-47.589-27.175-79.147-77.609-79.147-135.414 0-0.176 0-0.352 0.001-0.528v0.027-148.949h-26.283v145.067c-0.024 21.846-17.727 39.549-39.571 39.573h-422.189c-21.861-0.024-39.573-17.752-39.573-39.616 0-0.008 0-0.015 0-0.023v0.001-263.829c0.024-21.846 17.727-39.549 39.571-39.573h422.146c21.864 0 39.592 17.712 39.616 39.571v13.186h26.389v-52.779h290.133v369.813c0 0.022 0 0.048 0 0.074 0 45.333-31.070 83.41-73.078 94.096l-0.672 0.145zM687.125 826.944c29.122-0.036 52.721-23.635 52.757-52.754v-0.004h26.389c-0.048 9.471-1.756 18.528-4.849 26.915l0.177-0.547h5.44c72.388-0.032 131.058-58.722 131.058-131.115 0-46.65-24.363-87.61-61.060-110.85l-0.537-0.318-17.536-10.944v49.899l13.184 13.184c8.145 8.113 13.184 19.339 13.184 31.741 0 0.039 0 0.077 0 0.116v-0.006c-0.027 17.121-10.899 31.696-26.113 37.224l-0.276 0.088v15.445c-0.024 21.846-17.727 39.549-39.571 39.573h-93.037c-8.567-0.084-16.466-2.879-22.897-7.566l0.113 0.078c-17.464 8.82-29.23 26.62-29.23 47.168 0 29.090 23.582 52.672 52.672 52.672 0.009 0 0.017 0 0.026 0h-0.001zM687.125 568.555v43.712l-39.296 13.077c1.926 29.352 12.090 56.001 28.177 78.055l-0.294-0.423c2.396 3.237 6.201 5.313 10.491 5.313 0.062 0 0.124 0 0.185-0.001h93.111c7.276-0.012 13.172-5.908 13.184-13.183v-39.574h13.184c7.276-0.012 13.172-5.908 13.184-13.183v-0.001c0-0.010 0-0.023 0-0.035 0-5.138-2.088-9.788-5.461-13.149l-13.185-13.185c-4.753-4.784-7.698-11.368-7.723-18.641v-96.005c-11.614-11.051-27.363-17.849-44.7-17.849-2.848 0-5.653 0.183-8.404 0.539l0.325-0.034v26.347h26.389v26.389h-47.36c-17.591 0-31.851 14.26-31.851 31.851v0zM660.736 342.699c0 0.131-0.001 0.286-0.001 0.441 0 49.412 27.726 92.348 68.468 114.1l0.695 0.339h10.005c2.377-0.217 5.14-0.341 7.933-0.341 24.489 0 46.756 9.514 63.306 25.048l-0.050-0.046 33.365-8.32c31.064-7.898 53.675-35.618 53.675-68.618 0-0.056 0-0.113 0-0.169v0.009c-0.002-8.281-1.138-16.296-3.264-23.898l0.149 0.624-42.475-155.733-57.237 16.363 36.48 145.92-25.6 6.4-50.283-201.067h-95.168zM755.968 167.36c0.014 0 0.031 0 0.049 0 12.289 0 22.612 8.421 25.512 19.807l0.039 0.182 7.381 29.547 56.704-16.192-12.8-47.232c-6.342-22.562-26.716-38.833-50.897-38.869h-253.145c-14.574 0-26.389 11.815-26.389 26.389s11.815 26.389 26.389 26.389v0zM370.517 325.653v-52.779h-26.389v52.779h-26.389v-52.779h-26.389v79.125h131.925v-79.147h-26.475v52.8zM581.589 75.008c-0.012-7.276-5.908-13.172-13.183-13.184h-422.166c-7.276 0.012-13.172 5.908-13.184 13.183v263.83c0.012 7.276 5.908 13.172 13.183 13.184h118.742v-105.536h184.683v105.515h118.72c7.276-0.012 13.172-5.908 13.184-13.183v-145.068h-52.757c-28.689-0.595-51.718-23.992-51.718-52.768s23.029-52.173 51.662-52.767l0.056-0.001h52.779zM660.736 61.824v26.368h121.131c36.277 0.054 66.839 24.461 76.218 57.746l0.134 0.558 39.915 146.539v-231.168z" />
<glyph unicode="&#xe909;" d="M478.741 549.909h-68.651v237.461h-105.536v-237.461h-68.565l121.429-138.667zM330.944 523.52v237.461h52.779v-237.461h36.885l-63.275-72.299-63.275 72.299z" />
<glyph unicode="&#xe90a;" d="M264.981 114.581h26.389v-26.389h-26.389z" />
<glyph unicode="&#xe90b;" d="M212.203 114.581h26.389v-26.389h-26.389z" />
<glyph unicode="&#xe90c;" d="M159.445 114.581h26.389v-26.389h-26.389z" />
<glyph unicode="&#xe90d;" d="M159.445 167.339h131.925v-26.389h-131.925z" />
<glyph unicode="&#xe90e;" d="M901.568 663.232c-0.073 1.221-0.309 2.363-0.688 3.437l0.027-0.088c-0.149 0.427-0.256 0.832-0.427 1.237-0.67 1.477-1.545 2.74-2.605 3.821l-156.542 156.542c-1.081 1.065-2.353 1.941-3.759 2.57l-0.081 0.032c-0.384 0.171-0.789 0.277-1.195 0.427-0.999 0.394-2.156 0.673-3.363 0.786l-0.051 0.004c-0.213 0-0.448 0-0.725 0h-391.36c-36.007-0.036-65.189-29.21-65.237-65.211v-96.005c-87.553-39.406-147.408-125.881-147.408-226.336s59.855-186.93 145.847-225.707l1.561-0.629v-103.573c0.024-36.024 29.215-65.222 65.234-65.259h495.726c36.015 0.036 65.201 29.222 65.237 65.234v547.887c0 0.277-0.149 0.533-0.171 0.832zM857.195 675.456h-98.944c-7.211 0-13.056 5.845-13.056 13.056v0 98.944zM154.368 444.416c0 0.114 0 0.249 0 0.384 0 122.321 99.161 221.483 221.483 221.483 0.135 0 0.27 0 0.405 0h-0.021q11.115 0 22.037-1.067c101.219-10.336 181.66-87.591 196.773-186.353l0.155-1.231c1.649-9.924 2.639-21.418 2.73-33.125l0.001-0.091c-3.633-119.693-101.532-215.341-221.771-215.341s-218.138 95.647-221.763 215.007l-0.008 0.333zM527.701 248.448c1.792 1.387 3.541 2.752 5.291 4.267 6.733 5.45 12.754 10.85 18.495 16.532l-0.021-0.020c5.66 5.721 11.059 11.742 16.155 18.020l0.357 0.455c1.429 1.749 2.795 3.52 4.267 5.312s3.285 4.011 4.8 6.123l111.083-111.403c7.105-7.042 11.504-16.805 11.504-27.595s-4.399-20.552-11.501-27.592l-0.003-0.003c-7.14-6.906-16.881-11.162-27.616-11.162s-20.476 4.256-27.627 11.172l0.011-0.011-111.36 111.168c2.133 1.536 4.075 3.221 6.123 4.8zM836.565 75.349h-495.765c-21.62 0-39.147 17.527-39.147 39.147v0 93.397c0.811-0.256 1.664-0.427 2.475-0.683 2.133-0.64 4.267-1.152 6.4-1.728 4.885-1.301 9.792-2.603 14.763-3.584 2.432-0.512 4.885-0.981 7.339-1.408 4.971-0.875 9.984-1.557 14.933-2.133 2.24-0.256 4.459-0.576 6.72-0.768 7.232-0.619 14.507-1.024 21.845-1.024 0.055 0 0.12 0 0.185 0 45.159 0 87.479 12.157 123.866 33.377l-1.171-0.631 115.349-115.2c11.982-13.187 29.2-21.433 48.344-21.433 36.030 0 65.237 29.208 65.237 65.237 0 19.128-8.232 36.333-21.347 48.266l-0.053 0.047-115.2 115.371c20.59 35.21 32.747 77.524 32.747 122.678 0 0.071 0 0.142 0 0.213v-0.011q0 12.395-1.195 24.597c-12.925 125.864-118.386 223.211-246.584 223.211-0.055 0-0.11 0-0.166 0h0.008c-7.339 0-14.613-0.405-21.845-1.024-2.261-0.192-4.501-0.512-6.741-0.768q-7.531-0.832-14.933-2.133-3.712-0.64-7.403-1.429c-4.907-1.024-9.771-2.133-14.592-3.541-2.133-0.576-4.267-1.109-6.528-1.749-0.811-0.256-1.621-0.427-2.432-0.683v85.803c0 0 0 0 0 0 0 21.598 17.49 39.11 39.079 39.147h378.351v-117.333c0-21.62 17.527-39.147 39.147-39.147v0h117.333v-534.933c0-0.006 0-0.014 0-0.021 0-21.608-17.517-39.125-39.125-39.125-0.008 0-0.015 0-0.023 0h0.001z" />
<glyph unicode="&#xe90f;" d="M666.923 740.672c0 0 0 0 0 0 0 7.203-5.833 13.044-13.034 13.056h-286.998c-0.157 0.007-0.342 0.011-0.528 0.011-7.211 0-13.056-5.845-13.056-13.056s5.845-13.056 13.056-13.056c0.186 0 0.37 0.004 0.554 0.012l-0.026-0.001h286.997c7.194 0.012 13.023 5.841 13.035 13.033v0.001z" />
<glyph unicode="&#xe910;" d="M810.432 518.912h-156.544c-7.205 0-13.045-5.841-13.045-13.045s5.841-13.045 13.045-13.045h156.544c7.205 0 13.045 5.841 13.045 13.045s-5.841 13.045-13.045 13.045v0z" />
<glyph unicode="&#xe911;" d="M810.432 440.64h-156.544c-7.205 0-13.045-5.841-13.045-13.045s5.841-13.045 13.045-13.045h156.544c7.205 0 13.045 5.841 13.045 13.045s-5.841 13.045-13.045 13.045v0z" />
<glyph unicode="&#xe912;" d="M823.488 349.333c-0.012 7.201-5.853 13.035-13.056 13.035 0 0 0 0 0 0h-169.579c-7.205 0-13.045-5.841-13.045-13.045s5.841-13.045 13.045-13.045h169.6c7.201 0.012 13.035 5.853 13.035 13.056 0 0 0 0 0 0v0z" />
<glyph unicode="&#xe913;" d="M823.488 271.061c-0.012 7.202-5.853 13.035-13.056 13.035-0.023 0-0.045 0-0.067 0h-117.33c-6.98-0.291-12.528-6.020-12.528-13.045s5.548-12.754 12.502-13.044l0.026-0.001h117.333c0.019 0 0.041 0 0.064 0 7.211 0 13.056 5.845 13.056 13.056 0 0 0 0 0 0v0z" />
<glyph unicode="&#xe914;" d="M666.859 662.421c-0.012 7.201-5.853 13.035-13.056 13.035 0 0 0 0 0 0h-104.277c-0.157 0.007-0.342 0.011-0.528 0.011-7.211 0-13.056-5.845-13.056-13.056s5.845-13.056 13.056-13.056c0.186 0 0.37 0.004 0.554 0.012l-0.026-0.001h104.363c7.174 0.048 12.971 5.875 12.971 13.056 0 0 0 0 0 0v0z" />
<glyph unicode="&#xe915;" d="M823.488 584.149c-0.012 7.201-5.853 13.035-13.056 13.035 0 0 0 0 0 0h-195.669c-0.157 0.007-0.342 0.011-0.528 0.011-7.211 0-13.056-5.845-13.056-13.056s5.845-13.056 13.056-13.056c0.186 0 0.37 0.004 0.554 0.012l-0.026-0.001h195.691c7.201 0.012 13.035 5.853 13.035 13.056 0 0 0 0 0 0v0z" />
<glyph unicode="&#xe916;" d="M327.744 505.856h91.328c0.157-0.007 0.342-0.011 0.528-0.011 7.211 0 13.056 5.845 13.056 13.056s-5.845 13.056-13.056 13.056c-0.186 0-0.37-0.004-0.554-0.012l0.026 0.001h-91.328c-6.98-0.291-12.528-6.020-12.528-13.045s5.548-12.754 12.502-13.044l0.026-0.001z" />
<glyph unicode="&#xe917;" d="M484.288 440.64c0 7.211-5.845 13.056-13.056 13.056v0h-195.669c-6.98-0.291-12.528-6.020-12.528-13.045s5.548-12.754 12.502-13.044l0.026-0.001h195.691c7.194 0.012 13.023 5.841 13.035 13.033v0.001z" />
<glyph unicode="&#xe918;" d="M419.051 375.403h-91.307c-6.98-0.291-12.528-6.020-12.528-13.045s5.548-12.754 12.502-13.044l0.026-0.001h91.328c6.98 0.291 12.528 6.020 12.528 13.045s-5.548 12.754-12.502 13.044l-0.026 0.001z" />
<glyph unicode="&#xe919;" d="M469.013 272.341c32.053 17.299 57.925 42.432 75.627 72.899l0.491 0.915c1.024 1.813 2.133 3.541 3.115 5.376 0.512 0.939 0.896 1.92 1.387 2.859 1.984 3.819 3.904 7.616 5.611 11.52s3.051 7.616 4.459 11.435c0.405 1.109 0.917 2.133 1.301 3.307 6.781 19.026 10.699 40.973 10.699 63.835 0 108.124-87.652 195.776-195.776 195.776s-195.776-87.652-195.776-195.776c0-108.124 87.652-195.776 195.776-195.776 34.108 0 66.179 8.722 94.103 24.058l-1.016-0.511zM294.848 295.595c-14.778 8.139-27.485 17.753-38.632 28.925l-0.003 0.003c-7.758 7.737-14.778 16.206-20.949 25.298l-0.385 0.601q-4.629 6.912-8.533 14.208c-12.583 23.117-19.981 50.627-19.981 79.864 0 93.667 75.933 169.6 169.6 169.6s169.6-75.933 169.6-169.6c0-29.535-7.55-57.307-20.825-81.491l0.443 0.881v-0.107c-15.85-29.249-39.261-52.646-67.644-68.044l-0.879-0.436c-23.32-12.908-51.13-20.505-80.715-20.505-29.773 0-57.748 7.694-82.047 21.202l0.863-0.44z" />
<glyph unicode="&#xe91a;" d="M836.501 205.824c-7.194-0.012-13.023-5.841-13.035-13.033v-52.182c0-7.211-5.845-13.056-13.056-13.056v0h-52.16c-6.98-0.291-12.528-6.020-12.528-13.045s5.548-12.754 12.502-13.044l0.026-0.001h52.181c0.006 0 0.014 0 0.021 0 21.608 0 39.125 17.517 39.125 39.125 0 0.008 0 0.015 0 0.023v-0.001 52.181c-0.012 7.201-5.853 13.035-13.056 13.035-0.008 0-0.015 0-0.023 0h0.001z" />
<glyph unicode="&#xe91b;" d="M508.267 43.008c-4.659 0.014-8.877 1.893-11.948 4.93l0.002-0.002c-3.060 3.055-4.953 7.278-4.953 11.943 0 1.164 0.118 2.3 0.342 3.398l-0.019-0.109 23.872 119.445c0.676 3.411 2.319 6.361 4.627 8.638l262.615 262.615c9.176 9.137 21.832 14.786 35.808 14.786s26.632-5.649 35.81-14.788l47.742-47.742c9.153-9.169 14.812-21.828 14.812-35.808s-5.66-26.639-14.813-35.809l-262.612-262.612c-2.287-2.299-5.233-3.938-8.532-4.611l-0.108-0.018-119.381-23.957c-0.98-0.19-2.106-0.299-3.258-0.299-0.002 0-0.004 0-0.006 0v0zM547.712 171.008l-17.899-89.6 89.6 17.899 258.901 259.029c3.051 3.056 4.937 7.276 4.937 11.936s-1.887 8.88-4.938 11.936v0l-47.744 47.744c-3.056 3.051-7.276 4.937-11.936 4.937s-8.88-1.887-11.936-4.938v0zM627.627 83.84h0.405z" />
<glyph unicode="&#xe91c;" d="M427.413 144.299h-236.331c-46.607 0.036-84.38 37.809-84.416 84.412v438.916c0.036 46.607 37.809 84.38 84.412 84.416h67.524c9.326 0 16.885-7.56 16.885-16.885s-7.56-16.885-16.885-16.885v0h-67.52c-27.956-0.036-50.609-22.689-50.645-50.642v-438.915c0.036-27.956 22.689-50.609 50.642-50.645h236.334c9.326 0 16.885-7.56 16.885-16.885s-7.56-16.885-16.885-16.885v0z" />
<glyph unicode="&#xe91d;" d="M663.765 448.171c-9.315 0.012-16.863 7.56-16.875 16.874v202.668c-0.036 27.956-22.689 50.609-50.642 50.645h-67.544c-9.326 0-16.885 7.56-16.885 16.885s7.56 16.885 16.885 16.885v0h67.52c46.607-0.036 84.38-37.809 84.416-84.412v-202.671c-0.012-9.315-7.56-16.863-16.874-16.875h-0.001z" />
<glyph unicode="&#xe91e;" d="M494.955 650.667h-202.667c-27.942 0.085-50.56 22.756-50.56 50.709 0 0.008 0 0.015 0 0.023v-0.001 67.52c0.012 9.315 7.56 16.863 16.874 16.875h52.332c8.153 38.789 42.084 67.494 82.72 67.494s74.567-28.705 82.623-66.944l0.097-0.551h52.331c9.315-0.012 16.863-7.56 16.875-16.874v-67.521c0-0.006 0-0.014 0-0.021 0-27.976-22.655-50.661-50.619-50.709h-0.005zM275.499 752.043v-50.645c0.036-9.305 7.57-16.838 16.871-16.875h202.67c9.305 0.036 16.838 7.57 16.875 16.871v50.648h-50.731c-9.315 0.012-16.863 7.56-16.875 16.874v0.001c0 27.971-22.675 50.645-50.645 50.645s-50.645-22.675-50.645-50.645v0c-0.012-9.315-7.56-16.863-16.874-16.875h-0.001z" />
<glyph unicode="&#xe91f;" d="M562.475 549.461h-337.643c-9.326 0-16.885 7.56-16.885 16.885s7.56 16.885 16.885 16.885v0h337.643c9.326 0 16.885-7.56 16.885-16.885s-7.56-16.885-16.885-16.885v0z" />
<glyph unicode="&#xe920;" d="M562.475 448.171h-337.643c-9.326 0-16.885 7.56-16.885 16.885s7.56 16.885 16.885 16.885v0h337.643c9.326 0 16.885-7.56 16.885-16.885s-7.56-16.885-16.885-16.885v0z" />
<glyph unicode="&#xe921;" d="M562.475 346.88h-337.643c-9.326 0-16.885 7.56-16.885 16.885s7.56 16.885 16.885 16.885v0h337.643c9.326 0 16.885-7.56 16.885-16.885s-7.56-16.885-16.885-16.885v0z" />
<glyph unicode="&#xe922;" d="M509.056 617.963c2.896-3.818 7.435-6.258 12.544-6.258s9.648 2.44 12.516 6.219l0.028 0.039 92.245 122.56c1.974 2.597 3.163 5.885 3.163 9.451 0 8.672-7.030 15.701-15.701 15.701-0.002 0-0.004 0-0.006 0h-35.648v71.957c0 8.672-7.030 15.701-15.701 15.701v0h-81.771c-8.672 0-15.701-7.030-15.701-15.701v0-71.957h-35.755c-0.002 0-0.003 0-0.005 0-8.672 0-15.701-7.030-15.701-15.701 0-3.566 1.189-6.854 3.191-9.489l-0.028 0.039zM480.725 734.272c8.672 0 15.701 7.030 15.701 15.701v0 71.957h50.347v-71.957c0-8.672 7.030-15.701 15.701-15.701v0h19.883l-60.757-80.747-60.757 80.747z" />
<glyph unicode="&#xe923;" d="M856.853 509.355h-62.784l-66.795 137.579c-8.905 18.002-27.144 30.164-48.224 30.164-29.619 0-53.631-24.011-53.631-53.631 0-8.54 1.996-16.613 5.547-23.78l-0.14 0.313 44.053-90.731h-306.539l44.053 90.731c3.411 6.853 5.407 14.927 5.407 23.467 0 29.619-24.011 53.631-53.631 53.631-21.080 0-39.319-12.162-48.084-29.851l-0.14-0.313-66.795-137.579h-62.784c-8.672 0-15.701-7.030-15.701-15.701v0-75.456c0-8.672 7.030-15.701 15.701-15.701v0h27.456l45.312-339.733c1.058-7.736 7.622-13.632 15.564-13.632 0.003 0 0.006 0 0.009 0h493.824c0.003 0 0.006 0 0.009 0 7.942 0 14.507 5.896 15.555 13.55l0.009 0.082 45.291 339.669h27.456c8.672 0 15.701 7.030 15.701 15.701v0 75.563c0 8.672-7.030 15.701-15.701 15.701v0zM669.355 643.477c2.832 1.406 6.168 2.228 9.696 2.228 8.737 0 16.295-5.045 19.921-12.381l0.058-0.13 81.28-167.403c1.227-2.67 1.943-5.794 1.943-9.085 0-12.265-9.943-22.208-22.208-22.208-8.497 0-15.879 4.771-19.613 11.781l-0.058 0.12-81.28 167.403c-1.401 2.83-2.221 6.162-2.221 9.686 0 8.738 5.041 16.298 12.374 19.931l0.13 0.058zM690.133 477.931l21.333-44.032h-379.797l21.333 44.032zM344.192 633.195c3.559 7.8 11.29 13.123 20.265 13.123 12.265 0 22.208-9.943 22.208-22.208 0-3.769-0.939-7.318-2.595-10.427l0.058 0.12-81.28-167.403c-3.559-7.8-11.29-13.123-20.265-13.123-12.265 0-22.208 9.943-22.208 22.208 0 3.769 0.939 7.318 2.595 10.427l-0.058-0.12zM202.069 477.931h31.851c-2.946-6.411-4.663-13.91-4.663-21.81 0-6.296 1.091-12.337 3.094-17.944l-0.116 0.372q0.832-2.389 1.856-4.672h-32zM754.773 80.597h-466.325l-42.923 321.877h552.171zM841.152 433.963h-32q1.024 2.283 1.856 4.672c1.887 5.235 2.978 11.276 2.978 17.572 0 7.9-1.718 15.398-4.8 22.143l0.136-0.333h31.851v-44.053z" />
<glyph unicode="&#xe924;" d="M479.957 132.011c1.029-7.766 7.608-13.696 15.573-13.696 0 0 0 0 0.001 0h52.181c0 0 0 0 0.001 0 7.965 0 14.544 5.93 15.564 13.616l0.009 0.080 27.733 215.083c0.082 0.602 0.129 1.298 0.129 2.005 0 8.672-7.030 15.701-15.701 15.701 0 0 0 0-0.001 0h-107.584c0 0 0 0-0.001 0-8.672 0-15.701-7.030-15.701-15.701 0-0.707 0.047-1.403 0.137-2.085l-0.009 0.080zM557.547 333.397l-23.659-183.659h-24.555l-23.659 183.659z" />
<glyph unicode="&#xe925;" d="M626.987 118.293h82.261c0.002 0 0.004 0 0.006 0 8.010 0 14.619 5.998 15.581 13.747l0.008 0.077 25.856 215.083c0.072 0.564 0.113 1.216 0.113 1.877 0 8.672-7.030 15.701-15.701 15.701-0.002 0-0.004 0-0.006 0h-80.405c0 0 0 0-0.001 0-7.965 0-14.544-5.93-15.564-13.616l-0.009-0.080-27.733-215.083c-0.082-0.602-0.129-1.298-0.129-2.005 0-8.672 7.030-15.701 15.701-15.701 0 0 0 0 0.001 0v0zM668.501 333.376h48.896l-22.080-183.68h-50.475z" />
<glyph unicode="&#xe926;" d="M318.379 132.139c0.97-7.826 7.579-13.824 15.589-13.824 0.002 0 0.004 0 0.006 0h82.261c0 0 0 0 0.001 0 8.672 0 15.701 7.030 15.701 15.701 0 0.707-0.047 1.403-0.137 2.085l0.009-0.080-27.733 215.083c-1.029 7.766-7.608 13.696-15.573 13.696 0 0 0 0-0.001 0h-80.405c-0.002 0-0.004 0-0.006 0-8.672 0-15.701-7.030-15.701-15.701 0-0.662 0.041-1.314 0.12-1.954l-0.008 0.077zM374.72 333.397l23.659-183.659h-50.475l-22.080 183.659z" />
</font>
</defs>
</svg>
