<svg xmlns="http://www.w3.org/2000/svg" width="273.132" height="52.804" viewBox="0 0 273.132 52.804">
  <g id="Group_8" data-name="Group 8" transform="translate(-56 -52)">
    <text id="Avocado_Green_Mattress" data-name="Avocado Green Mattress" transform="translate(115.132 100.804)" fill="#77917a" font-size="15" font-family="SourceSansPro-Regular, Source Sans Pro"><tspan x="0" y="0">Avocado Green Mattress</tspan></text>
    <g id="Page-1" transform="translate(56 52)">
      <g id="logo_avocado" transform="translate(0 0)">
        <path id="Fill-1" d="M15.085,2.566,0,28.4H5.443l3.251-5.536H26.883L30.17,28.4h5.442L20.491,2.566ZM11.908,17.33l5.88-10.593L23.705,17.33l.658,1.108H11.214Z" transform="translate(0 -2.012)" fill="#769179" fill-rule="evenodd"/>
        <path id="Fill-2" d="M120.016,2.566,105.077,28.4H99.671L84.732,2.566h5.442l6.319,11.073,5.881,10.593,5.881-10.593,6.319-11.073Z" transform="translate(-49.413 -2.012)" fill="#769179" fill-rule="evenodd"/>
        <g id="o" transform="translate(75.094 0)">
          <path id="Fill-3" d="M17.362,23.4c8.4,0,12.346-3.765,12.346-9.006,0-5.278-3.945-9.043-12.346-9.043S4.979,9.119,4.979,14.4c0,5.241,3.981,9.006,12.382,9.006m0-22.478c11.286,0,17.167,5.8,17.167,13.472S28.648,27.87,17.362,27.87.194,22.074.194,14.4,6.075.925,17.362.925" transform="translate(-0.194 -0.925)" fill="#769179" fill-rule="evenodd"/>
        </g>
        <g id="c" transform="translate(117.207 0)">
          <path id="Fill-6" d="M32.69,25.8a39.484,39.484,0,0,1-13,2.067C6.392,27.87.84,22.074.84,14.4S6.392.924,19.687.924a39.469,39.469,0,0,1,13,2.067l-1.1,4.282A40.866,40.866,0,0,0,19.687,5.354C9.533,5.354,5.625,9.119,5.625,14.4c0,5.242,3.908,9.006,14.062,9.006a40.957,40.957,0,0,0,11.908-1.882Z" transform="translate(-0.84 -0.924)" fill="#769179" fill-rule="evenodd"/>
        </g>
        <path id="a" d="M385.1,17.33l-.694,1.108h13.149L396.9,17.33,390.981,6.736ZM408.805,28.4h-5.442l-3.287-5.537h-18.19l-3.25,5.537h-5.443L388.278,2.566h5.406Z" transform="translate(-217.634 -2.012)" fill="#769179" fill-rule="evenodd"/>
        <path id="d" d="M481.476,6.995V23.936h7.816c10.154,0,14.026-3.211,14.026-8.452,0-5.278-3.871-8.489-14.026-8.489ZM476.764,28.4V2.565h12.528c13.3,0,18.847,5.241,18.847,12.919S502.588,28.4,489.292,28.4Z" transform="translate(-278.034 -2.011)" fill="#769179" fill-rule="evenodd"/>
        <g id="o-2" data-name="o" transform="translate(238.797 0)">
          <path id="Fill-13" d="M17.342,23.4c8.4,0,12.346-3.765,12.346-9.006,0-5.278-3.945-9.043-12.346-9.043S4.96,9.119,4.96,14.4c0,5.241,3.981,9.006,12.382,9.006m0-22.478c11.286,0,17.167,5.8,17.167,13.472S28.629,27.87,17.342,27.87.175,22.074.175,14.4,6.056.925,17.342.925" transform="translate(-0.175 -0.925)" fill="#769179" fill-rule="evenodd"/>
        </g>
        <path id="Fill-16" d="M606.471,29.4c0-1.838-1.373-3.149-4.3-3.149s-4.311,1.311-4.311,3.149,1.386,3.136,4.311,3.136S606.471,31.225,606.471,29.4Z" transform="translate(-348.654 -15.825)" fill="#769179" fill-rule="evenodd"/>
      </g>
    </g>
  </g>
</svg>
