<svg xmlns="http://www.w3.org/2000/svg" width="13.792" height="16" viewBox="0 0 13.792 16">
  <path id="Path_134" data-name="Path 134" d="M13.887-2.768v-7.52a.461.461,0,0,0-.48-.416c-.32,0-1.664.864-2.88.864-.916,0-1.928-.864-3.968-.864a9.525,9.525,0,0,0-3.584.9v-1a1.7,1.7,0,0,0,.7-1.408,1.789,1.789,0,0,0-.523-1.267A1.789,1.789,0,0,0,1.887-14a1.789,1.789,0,0,0-1.268.524,1.789,1.789,0,0,0-.524,1.268A1.788,1.788,0,0,0,.8-10.8V.912A1.079,1.079,0,0,0,1.887,2,1.049,1.049,0,0,0,2.943.912V-1.52c.064-.032.128-.032.192-.064a9.157,9.157,0,0,1,3.616-.928c1.728,0,2.4.9,3.84.9a7.37,7.37,0,0,0,2.88-.736C13.695-2.448,13.887-2.544,13.887-2.768Z" transform="translate(-0.095 14)"/>
</svg>
