<svg xmlns="http://www.w3.org/2000/svg" width="35.022" height="28.795" viewBox="0 0 35.022 28.795">
  <g id="Group_95" data-name="Group 95" transform="translate(-93.768 -168.1)">
    <path id="Path_31" data-name="Path 31" d="M127.062,666.477H95.746a1.849,1.849,0,0,1-1.846-1.846V658.2h.837v6.431a1.009,1.009,0,0,0,1.009,1.009h31.316a1.009,1.009,0,0,0,1.009-1.009V658.2h.837v6.431A1.849,1.849,0,0,1,127.062,666.477Z" transform="translate(-0.127 -469.582)"/>
    <path id="Path_32" data-name="Path 32" d="M128.715,188.242l-5.267-18.856a1.756,1.756,0,0,0-1.683-1.285h-3.877a1.268,1.268,0,0,0-.862.335,1.268,1.268,0,0,0-.862-.335H112.14a1.268,1.268,0,0,0-.862.335,1.268,1.268,0,0,0-.862-.335h-4.023a1.268,1.268,0,0,0-.862.335,1.268,1.268,0,0,0-.862-.335H100.79a1.752,1.752,0,0,0-1.683,1.281L93.84,188.242a2.067,2.067,0,0,0-.067.695,1.929,1.929,0,0,0,.389,1.009,2.058,2.058,0,0,0,.448.427,1.93,1.93,0,0,0,1.105.343h5.447a.9.9,0,0,1,.9.9h.837a.9.9,0,0,1,.9-.9h6.154a.9.9,0,0,1,.9.9h.837a.9.9,0,0,1,.9-.9h6.154a.9.9,0,0,1,.9.9h.837a.9.9,0,0,1,.9-.9h5.455a1.93,1.93,0,0,0,1.105-.343,2.059,2.059,0,0,0,.448-.427,1.943,1.943,0,0,0,.389-1.009A1.873,1.873,0,0,0,128.715,188.242Zm-.77.649a1.085,1.085,0,0,1-.222.548,1.1,1.1,0,0,1-.883.44h-5.455a1.729,1.729,0,0,0-1.319.607,1.729,1.729,0,0,0-1.319-.607h-6.154a1.729,1.729,0,0,0-1.319.607,1.729,1.729,0,0,0-1.319-.607H103.8a1.729,1.729,0,0,0-1.319.607,1.729,1.729,0,0,0-1.319-.607H95.716a1.118,1.118,0,0,1-1.105-.988,1.176,1.176,0,0,1,0-.243.855.855,0,0,1,.033-.18l5.267-18.861a.914.914,0,0,1,.879-.67h3.877a.447.447,0,0,1,.444.444h.837a.447.447,0,0,1,.444-.444h4.023a.447.447,0,0,1,.444.444h.837a.447.447,0,0,1,.444-.444h4.023a.447.447,0,0,1,.444.444h.837a.447.447,0,0,1,.444-.444h3.877a.914.914,0,0,1,.879.67l5.267,18.861a.908.908,0,0,1,.033.18A1.178,1.178,0,0,1,127.944,188.891Z"/>
    <path id="Path_33" data-name="Path 33" d="M311.672,553.486a.586.586,0,1,1-.586-.586A.588.588,0,0,1,311.672,553.486Z" transform="translate(-207.659 -368.69)"/>
    <path id="Path_34" data-name="Path 34" d="M499.172,553.486a.586.586,0,1,1-.586-.586A.588.588,0,0,1,499.172,553.486Z" transform="translate(-387.309 -368.69)"/>
    <path id="Path_35" data-name="Path 35" d="M687.672,553.486a.586.586,0,1,1-.586-.586A.588.588,0,0,1,687.672,553.486Z" transform="translate(-567.917 -368.69)"/>
    <path id="Path_36" data-name="Path 36" d="M330.672,414.486a.586.586,0,1,1-.586-.586A.588.588,0,0,1,330.672,414.486Z" transform="translate(-225.863 -235.509)"/>
    <path id="Path_37" data-name="Path 37" d="M499.172,414.486a.586.586,0,1,1-.586-.586A.588.588,0,0,1,499.172,414.486Z" transform="translate(-387.309 -235.509)"/>
    <path id="Path_38" data-name="Path 38" d="M668.672,414.486a.586.586,0,1,1-.586-.586A.588.588,0,0,1,668.672,414.486Z" transform="translate(-549.712 -235.509)"/>
    <path id="Path_39" data-name="Path 39" d="M348.672,281.486a.586.586,0,1,1-.586-.586A.588.588,0,0,1,348.672,281.486Z" transform="translate(-243.11 -108.078)"/>
    <path id="Path_40" data-name="Path 40" d="M499.172,281.486a.586.586,0,1,1-.586-.586A.588.588,0,0,1,499.172,281.486Z" transform="translate(-387.309 -108.078)"/>
    <path id="Path_41" data-name="Path 41" d="M650.672,281.486a.586.586,0,1,1-.586-.586A.588.588,0,0,1,650.672,281.486Z" transform="translate(-532.466 -108.078)"/>
  </g>
</svg>
