<svg xmlns="http://www.w3.org/2000/svg" width="37.205" height="37.5" viewBox="0 0 37.205 37.5">
  <g id="Group_100" data-name="Group 100" transform="translate(-48.569 -765.5)">
    <g id="Group_99" data-name="Group 99" transform="translate(47.569 764.5)">
      <path id="Path_49" data-name="Path 49" d="M46.354,40.22A4.159,4.159,0,0,0,43.1,37.311L39.184,36.6v-.309a5.978,5.978,0,0,0,2.871-4.016,2.391,2.391,0,0,0,1.9-2.338V24.041a3.742,3.742,0,0,0-2.674-3.591l-.3-.3a7.348,7.348,0,0,0-12.544,5.2v4.587a2.391,2.391,0,0,0,1.9,2.338,5.979,5.979,0,0,0,2.871,4.016V36.6L29.3,37.31a4.161,4.161,0,0,0-3.254,2.91l-1.39,4.635H47.744Zm-12.69-2.49,1.628,1.221-1.218,1.217-.79-2.37Zm2.536.411-1.74-1.3a5.945,5.945,0,0,0,3.479,0Zm2.536-.411.38.069-.79,2.37-1.218-1.217Zm3.431-6.767V28.908a1.183,1.183,0,0,1,0,2.055ZM29.635,29.935a1.19,1.19,0,0,1,.6-1.028v2.055A1.19,1.19,0,0,1,29.635,29.935Zm.6-2.984v.682a2.367,2.367,0,0,0-.6.247V25.348A6.155,6.155,0,0,1,40.142,21l.526.527.161.039a2.551,2.551,0,0,1,1.935,2.478V27.88a2.345,2.345,0,0,0-.6-.247v-.682H40.275a5.191,5.191,0,0,1-4.133-2.065l-.474-.634-1.186,1.186a5.134,5.134,0,0,1-3.653,1.513Zm1.194,4.177V28.118a6.317,6.317,0,0,0,3.9-1.835l.232-.232a6.393,6.393,0,0,0,4.717,2.095h.7v2.984a4.774,4.774,0,1,1-9.548,0ZM26.26,43.661l.93-3.1a2.969,2.969,0,0,1,2.324-2.078l2.584-.47,1.454,4.364L36.2,39.731l2.648,2.648L40.3,38.015l2.584.47a2.972,2.972,0,0,1,2.324,2.078l.929,3.1Z" transform="translate(-9.539 -6.855)"/>
      <path id="Path_50" data-name="Path 50" d="M2.777,11.455l-.841,1.453,2.674,2.674,1.453-.841c.124.057.249.109.373.156l.433,1.62h3.781l.433-1.62q.187-.072.373-.156l1.453.841,2.674-2.674-.841-1.453c.057-.125.109-.249.156-.374l1.62-.431V6.867L14.9,6.435q-.072-.187-.156-.374l.841-1.453L12.907,1.935l-1.453.841c-.124-.057-.249-.109-.373-.156L10.649,1H6.867L6.435,2.62q-.187.072-.373.156L4.609,1.935,1.936,4.609l.841,1.453c-.057.125-.109.249-.157.374L1,6.867v3.782l1.62.431C2.667,11.205,2.719,11.33,2.777,11.455ZM2.194,7.784l1.353-.36.1-.31a5.388,5.388,0,0,1,.336-.8l.149-.29-.7-1.214L4.805,3.427l1.214.7.29-.149a5.435,5.435,0,0,1,.8-.337l.31-.1.36-1.352H9.732l.36,1.352.31.1a5.5,5.5,0,0,1,.8.337l.29.149,1.214-.7,1.377,1.378-.7,1.214.149.29a5.336,5.336,0,0,1,.336.8l.1.31,1.353.36V9.732l-1.353.36-.1.31a5.388,5.388,0,0,1-.336.8l-.149.29.7,1.214-1.377,1.378-1.214-.7-.29.149a5.435,5.435,0,0,1-.8.337l-.31.1-.36,1.352H7.784l-.36-1.352-.31-.1a5.5,5.5,0,0,1-.8-.337l-.29-.149-1.214.7L3.428,12.711l.7-1.214-.149-.29a5.336,5.336,0,0,1-.336-.8l-.1-.31-1.353-.36Z"/>
      <path id="Path_51" data-name="Path 51" d="M11.177,15.355a4.136,4.136,0,0,0,2.546-.865L13,13.544a2.955,2.955,0,0,1-1.818.617,2.984,2.984,0,1,1,2.984-2.984,2.957,2.957,0,0,1-.588,1.78l.957.713a4.178,4.178,0,1,0-3.353,1.685Z" transform="translate(-2.419 -2.419)"/>
      <path id="Path_52" data-name="Path 52" d="M52.355,6.968v2.14l-.772-.772-.844.844,2.212,2.212L55.164,9.18l-.844-.844-.772.772V6.968A5.975,5.975,0,0,0,47.581,1H44V2.194h3.581A4.78,4.78,0,0,1,52.355,6.968Z" transform="translate(-17.339)"/>
      <path id="Path_53" data-name="Path 53" d="M4.1,50.01V47.87l.772.772.844-.844L3.505,45.586,1.293,47.8l.844.844.772-.772v2.14a5.975,5.975,0,0,0,5.968,5.968V54.785A4.78,4.78,0,0,1,4.1,50.01Z" transform="translate(-0.118 -17.978)"/>
      <rect id="Rectangle_35" data-name="Rectangle 35" width="15" height="2" transform="translate(1.431 18.5)"/>
      <rect id="Rectangle_36" data-name="Rectangle 36" width="15" height="1" transform="translate(1.431 23.5)"/>
      <rect id="Rectangle_37" data-name="Rectangle 37" width="7" height="1" transform="translate(1.431 21.5)"/>
      <path id="Path_54" data-name="Path 54" d="M15,35v1.194h7.161V35H15Z" transform="translate(-5.645 -13.71)"/>
      <rect id="Rectangle_38" data-name="Rectangle 38" width="1" height="1" transform="translate(24.431 1.5)"/>
      <rect id="Rectangle_39" data-name="Rectangle 39" width="2" height="1" transform="translate(21.431 1.5)"/>
      <rect id="Rectangle_40" data-name="Rectangle 40" width="1" height="2" transform="translate(10.431 36.5)"/>
      <rect id="Rectangle_41" data-name="Rectangle 41" width="1" height="2" transform="translate(12.431 36.5)"/>
    </g>
  </g>
</svg>
