<svg xmlns="http://www.w3.org/2000/svg" width="37" height="35" viewBox="0 0 37 35">
  <g id="Group_103" data-name="Group 103" transform="translate(-45.205 -683.511)">
    <g id="Union_1" data-name="Union 1" transform="translate(45.205 683.511)" fill="none">
      <path d="M9.375,31.852A5.436,5.436,0,0,1,0,28.073a5.472,5.472,0,0,1,3.012-4.9,17.281,17.281,0,0,1,.736-12.51A5.465,5.465,0,1,1,10.4,3.2a17,17,0,0,1,16.543-.625,5.451,5.451,0,1,1,7.5,7.534,17.264,17.264,0,0,1,.725,13.86,5.475,5.475,0,0,1-3.6,9.569,5.4,5.4,0,0,1-3.315-1.132,16.989,16.989,0,0,1-18.869-.558Z" stroke="none"/>
      <path d="M 19.22509002685547 34 C 22.23633003234863 34 25.17086029052734 33.15715026855469 27.71142959594727 31.56255912780762 L 28.30273056030273 31.19142913818359 L 28.85490989685059 31.61858940124512 C 29.63565063476562 32.22256088256836 30.57051086425781 32.54180145263672 31.55842018127441 32.54180145263672 C 34.00751876831055 32.54180145263672 36 30.53721046447754 36 28.07324028015137 C 36 26.79138946533203 35.45166015625 25.56937980651855 34.49557113647461 24.72053909301758 L 33.97977066040039 24.26259994506836 L 34.224609375 23.61776924133301 C 34.92132949829102 21.78286933898926 35.27458953857422 19.84720993041992 35.27458953857422 17.86454963684082 C 35.27458953857422 15.29426002502441 34.69160079956055 12.83792018890381 33.54180908203125 10.56375026702881 L 33.1302490234375 9.749730110168457 L 33.90309143066406 9.265259742736816 C 35.21611022949219 8.442179679870605 36 7.022850036621094 36 5.468570232391357 C 36 3.004590034484863 34.00751876831055 1 31.55842018127441 1 C 30.01579093933105 1 28.6063404083252 1.787310004234314 27.78812026977539 3.106060028076172 L 27.30302047729492 3.887909889221191 L 26.48357963562012 3.469429969787598 C 24.22230911254883 2.314630031585693 21.78019905090332 1.729099988937378 19.22509002685547 1.729099988937378 C 16.28743934631348 1.729099988937378 13.41411972045898 2.534189939498901 10.91574954986572 4.057330131530762 L 9.951040267944336 4.645470142364502 L 9.48445987701416 3.616450071334839 C 8.763779640197754 2.02701997756958 7.176599979400635 1 5.440929889678955 1 C 2.992189884185791 1 1 3.004590034484863 1 5.468570232391357 C 1 7.408500194549561 2.22992992401123 9.116180419921875 4.060530185699463 9.717929840087891 L 5.12598991394043 10.06816005706787 L 4.656360149383545 11.08666038513184 C 3.674220085144043 13.21660041809082 3.176239967346191 15.49701976776123 3.176239967346191 17.86454963684082 C 3.176239967346191 19.57534980773926 3.440959930419922 21.25930023193359 3.96304988861084 22.86960983276367 L 4.227819919586182 23.68622970581055 L 3.460700035095215 24.07159996032715 C 1.942890048027039 24.8341007232666 1 26.36743927001953 1 28.07324028015137 C 1 30.53721046447754 2.992189884185791 32.54180145263672 5.440929889678955 32.54180145263672 C 6.664249897003174 32.54180145263672 7.803919792175293 32.05200958251953 8.649990081787109 31.16264915466309 L 9.248180389404297 30.53384971618652 L 9.954919815063477 31.03757095336914 C 12.67403030395508 32.97560882568359 15.87959957122803 34 19.22509002685547 34 M 19.22509002685547 35 C 15.55525970458984 35 12.15643978118896 33.83470916748047 9.374509811401367 31.85190010070801 C 8.38379955291748 32.8932991027832 6.987870216369629 33.54180145263672 5.440929889678955 33.54180145263672 C 2.436110019683838 33.54180145263672 0 31.09332084655762 0 28.07324028015137 C 0 25.93011093139648 1.226230025291443 24.07502937316895 3.011800050735474 23.17802047729492 C 2.46943998336792 21.50518989562988 2.176239967346191 19.71931076049805 2.176239967346191 17.86454963684082 C 2.176239967346191 15.29411029815674 2.73924994468689 12.85612964630127 3.748250007629395 10.66792011260986 C 1.572049975395203 9.952569961547852 0 7.895259857177734 0 5.468570232391357 C 0 2.448489904403687 2.436110019683838 0 5.440929889678955 0 C 7.642380237579346 0 9.538350105285645 1.313730001449585 10.39521026611328 3.203490018844604 C 12.97056007385254 1.633419990539551 15.99316024780273 0.7290999889373779 19.22509002685547 0.7290999889373779 C 22.00093078613281 0.7290999889373779 24.62227058410645 1.396029949188232 26.93839073181152 2.578840017318726 C 27.899169921875 1.030320048332214 29.60906982421875 0 31.55842018127441 0 C 34.56389999389648 0 37 2.448489904403687 37 5.468570232391357 C 37 7.428060054779053 35.97486114501953 9.146780014038086 34.43423080444336 10.11254978179932 C 35.61112976074219 12.44034004211426 36.27458953857422 15.07460975646973 36.27458953857422 17.86454963684082 C 36.27458953857422 20.01621055603027 35.87989044189453 22.07546043395996 35.15948867797852 23.97274017333984 C 36.28820037841797 24.97484016418457 37 26.44045066833496 37 28.07324028015137 C 37 31.09332084655762 34.56389999389648 33.54180145263672 31.55842018127441 33.54180145263672 C 30.31056976318359 33.54180145263672 29.16098976135254 33.11965942382812 28.24304008483887 32.40954971313477 C 25.62701034545898 34.05149841308594 22.53655052185059 35 19.22509002685547 35 Z" stroke="none" fill="#000"/>
    </g>
    <g id="Group_101" data-name="Group 101" transform="translate(47.388 685.592)">
      <text id="A" transform="translate(2.817 4.919)" font-size="6" font-family="Roboto-Bold, Roboto" font-weight="700"><tspan x="-2.019" y="0">A</tspan></text>
      <text id="B" transform="translate(28.817 5.919)" font-size="6" font-family="Roboto-Bold, Roboto" font-weight="700"><tspan x="-1.915" y="0">B</tspan></text>
      <text id="C" transform="translate(2.817 27.919)" font-size="6" font-family="Roboto-Bold, Roboto" font-weight="700"><tspan x="-1.963" y="0">C</tspan></text>
      <text id="D" transform="translate(29.817 27.919)" font-size="6" font-family="Roboto-Bold, Roboto" font-weight="700"><tspan x="-1.95" y="0">D</tspan></text>
    </g>
    <g id="Group_102" data-name="Group 102" transform="translate(57.736 693.552)">
      <g id="Rectangle_34" data-name="Rectangle 34" transform="translate(0.47 -0.04)" fill="none" stroke="#000" stroke-width="1">
        <rect width="11" height="16" rx="5.5" stroke="none"/>
        <rect x="0.5" y="0.5" width="10" height="15" rx="5" fill="none"/>
      </g>
      <line id="Line_19" data-name="Line 19" x2="2.201" transform="translate(2.302 6.126)" fill="none" stroke="#000" stroke-width="1"/>
      <line id="Line_20" data-name="Line 20" x2="2.201" transform="translate(7.437 6.126)" fill="none" stroke="#000" stroke-width="1"/>
      <line id="Line_21" data-name="Line 21" x2="2.201" transform="translate(5.236 11.261)" fill="none" stroke="#000" stroke-width="1"/>
    </g>
  </g>
</svg>
