<svg xmlns="http://www.w3.org/2000/svg" width="50.245" height="49.746" viewBox="0 0 50.245 49.746">
  <g id="Group_97" data-name="Group 97" transform="translate(-85.626 -869.167)">
    <path id="Path_42" data-name="Path 42" d="M325.913,1539.713s4.076-11.52,12.76-12.583" transform="translate(-234 -652.641)" fill="none" stroke="#000" stroke-width="1"/>
    <g id="Group_96" data-name="Group 96" transform="translate(-234 -652.641)">
      <path id="Path_43" data-name="Path 43" d="M325.913,1539.713s4.076-11.52,12.76-12.583" transform="matrix(0.309, 0.951, -0.951, 0.309, 1706.979, 740.539)" fill="none" stroke="#000" stroke-width="1"/>
      <path id="Path_44" data-name="Path 44" d="M325.913,1539.713s4.076-11.52,12.76-12.583" transform="matrix(-0.788, 0.616, -0.616, -0.788, 1566.212, 2551.194)" fill="none" stroke="#000" stroke-width="1"/>
    </g>
    <path id="Path_43-2" data-name="Path 43" d="M325.913,1539.713s4.076-11.52,12.76-12.583" transform="translate(-570.832 2322.278) rotate(-142)" fill="none" stroke="#000" stroke-width="1"/>
    <path id="Path_44-2" data-name="Path 44" d="M325.913,1539.713s4.076-11.52,12.76-12.583" transform="translate(-1456.237 659.978) rotate(-69)" fill="none" stroke="#000" stroke-width="1"/>
    <path id="Path_42-2" data-name="Path 42" d="M325.913,1536.365s2.992-8.454,9.365-9.235" transform="matrix(0.848, 0.53, -0.53, 0.848, 639.471, -593.247)" fill="none" stroke="#000" stroke-width="1"/>
    <g id="Group_96-2" data-name="Group 96" transform="matrix(0.848, 0.53, -0.53, 0.848, 119.286, 878.379)">
      <path id="Path_43-3" data-name="Path 43" d="M0,9.235S2.992.78,9.365,0" transform="matrix(0.309, 0.951, -0.951, 0.309, 8.783, 0)" fill="none" stroke="#000" stroke-width="1"/>
      <path id="Path_44-3" data-name="Path 44" d="M0,9.235S2.992.78,9.365,0" transform="matrix(-0.788, 0.616, -0.616, -0.788, 18.976, 19.112)" fill="none" stroke="#000" stroke-width="1"/>
    </g>
    <path id="Path_43-4" data-name="Path 43" d="M0,9.235S2.992.78,9.365,0" transform="matrix(-0.342, -0.94, 0.94, -0.342, 102.431, 909.787)" fill="none" stroke="#000" stroke-width="1"/>
    <path id="Path_44-4" data-name="Path 44" d="M0,9.235S2.992.78,9.365,0" transform="translate(92.003 890.077) rotate(-37)" fill="none" stroke="#000" stroke-width="1"/>
    <path id="Path_45" data-name="Path 45" d="M343.77,1554.125s-6.775.438-8.974-7.187,7.25-13.812,13.55-9.437" transform="translate(-233.283 -652.641)" fill="none" stroke="#000" stroke-width="1"/>
    <path id="Path_46" data-name="Path 46" d="M352.625,1542.5s2.875,4.625-3.937,10.625" transform="translate(-234 -652.641)" fill="none" stroke="#000" stroke-width="1"/>
    <path id="Path_47" data-name="Path 47" d="M340.5,1542.5a5.045,5.045,0,0,1,6.375-.812" transform="translate(-234 -652.641)" fill="none" stroke="#000" stroke-width="1"/>
    <path id="Path_48" data-name="Path 48" d="M339.563,1545l3.625,3.625,12.188-12.25" transform="translate(-234 -652.641)" fill="none" stroke="#000" stroke-width="1"/>
  </g>
</svg>
