<svg xmlns="http://www.w3.org/2000/svg" width="306.868" height="57.979" viewBox="0 0 306.868 57.979">
  <g id="Group_63" data-name="Group 63" transform="translate(-56 -52)">
    <text id="Avocado_Green_Mattress" data-name="Avocado Green Mattress" transform="translate(122.435 105.979)" fill="#fff" font-size="16" font-family="SourceSansPro-Regular, Source Sans Pro"><tspan x="0" y="0">Avocado Green Mattress</tspan></text>
    <g id="Page-1" transform="translate(56 52)">
      <g id="logo_avocado" transform="translate(0 0)">
        <path id="Fill-1" d="M16.949,2.566,0,31.594H6.115l3.652-6.22H30.2l3.693,6.22h6.115L23.022,2.566Zm-3.57,16.588,6.606-11.9,6.648,11.9.739,1.244H12.6Z" transform="translate(0 -1.943)" fill="#fff" fill-rule="evenodd"/>
        <path id="Fill-2" d="M124.374,2.566,107.59,31.594h-6.074L84.732,2.566h6.115l7.1,12.441,6.607,11.9,6.607-11.9,7.1-12.441Z" transform="translate(-45.051 -1.943)" fill="#fff" fill-rule="evenodd"/>
        <g id="o" transform="translate(84.37 0)">
          <path id="Fill-3" d="M19.482,26.18c9.439,0,13.87-4.23,13.87-10.119,0-5.93-4.432-10.16-13.87-10.16S5.57,10.131,5.57,16.061c0,5.889,4.473,10.119,13.912,10.119m0-25.255c12.68,0,19.287,6.511,19.287,15.136S32.163,31.2,19.482,31.2.194,24.687.194,16.061,6.8.925,19.482.925" transform="translate(-0.194 -0.925)" fill="#fff" fill-rule="evenodd"/>
        </g>
        <g id="c" transform="translate(131.685 0)">
          <path id="Fill-6" d="M36.624,28.875A44.361,44.361,0,0,1,22.015,31.2C7.077,31.2.84,24.687.84,16.061S7.077.924,22.015.924a44.345,44.345,0,0,1,14.61,2.323l-1.231,4.81A45.914,45.914,0,0,0,22.015,5.9c-11.408,0-15.8,4.23-15.8,10.16,0,5.889,4.391,10.119,15.8,10.119a46.016,46.016,0,0,0,13.379-2.115Z" transform="translate(-0.84 -0.924)" fill="#fff" fill-rule="evenodd"/>
        </g>
        <path id="a" d="M386.571,19.153l-.78,1.244h14.774l-.739-1.244-6.648-11.9ZM413.2,31.594H407.09L403.4,25.373H382.96l-3.652,6.221h-6.115L390.141,2.566h6.074Z" transform="translate(-198.42 -1.943)" fill="#fff" fill-rule="evenodd"/>
        <path id="d" d="M482.058,7.542V26.576h8.782c11.409,0,15.758-3.608,15.758-9.5,0-5.93-4.35-9.538-15.758-9.538Zm-5.294,24.052V2.565H490.84c14.938,0,21.175,5.889,21.175,14.515s-6.237,14.514-21.175,14.514Z" transform="translate(-253.487 -1.943)" fill="#fff" fill-rule="evenodd"/>
        <g id="o-2" data-name="o" transform="translate(268.293 0)">
          <path id="Fill-13" d="M19.463,26.18c9.439,0,13.871-4.23,13.871-10.119,0-5.93-4.432-10.16-13.871-10.16S5.551,10.131,5.551,16.061c0,5.889,4.473,10.119,13.912,10.119m0-25.255c12.68,0,19.287,6.511,19.287,15.136S32.143,31.2,19.463,31.2.175,24.687.175,16.061,6.782.925,19.463.925" transform="translate(-0.175 -0.925)" fill="#fff" fill-rule="evenodd"/>
        </g>
        <path id="Fill-16" d="M607.535,29.789c0-2.065-1.543-3.538-4.829-3.538s-4.843,1.473-4.843,3.538,1.557,3.523,4.843,3.523S607.535,31.84,607.535,29.789Z" transform="translate(-317.872 -14.537)" fill="#fff" fill-rule="evenodd"/>
      </g>
    </g>
  </g>
</svg>
